# xmcd
#
# Track frame offsets: 
#        150
#        17757
#        33605
#        44886
#        61917
#        75606
#        87577
#        103088
#        115862
#        135326
#        157942
#        169100
#
# Disc length: 2407 seconds
#
# Revision: 1
# Processed by: cddbd v1.5.2PL0 Copyright (c) Steve Scherf et al.
# Submitted via: ExactAudioCopyFreeDBPlugin 1.0
#
DISCID=9909650c
DTITLE=Various Artist - Latin - Seriously Good Music
DYEAR=2006
DGENRE=Latin
TTITLE0=La Crema De New York - El Party
TTITLE1=Willie Rosario and his Orchestra - Let's Boogaloo
TTITLE2=La Playa Sextet - Sambia
TTITLE3=Kako and His Orchestra - Kako's Boogaloo
TTITLE4=Perez Prado - Virgen De Le Macarena
TTITLE5=La Playa Sextet - Echa Martin
TTITLE6=Ray Barretto - La Juventud De Borinquen
TTITLE7=Roberto  Puente and His Orchestra - Caramelo A Kilo
TTITLE8=La Crema De New York - Quimbia
TTITLE9=Ocho - Flautira
TTITLE10=Charlie Palmieri - Pacheco's Descarga
TTITLE11=Ray Barretto - Do You Dig It
EXTD=YEAR: 2000
EXTT0=
EXTT1=
EXTT2=
EXTT3=
EXTT4=
EXTT5=
EXTT6=
EXTT7=
EXTT8=
EXTT9=
EXTT10=
EXTT11=
PLAYORDER=
